<?xml version="1.0" standalone="no"?>
<!DOCTYPE svg PUBLIC "-//W3C//DTD SVG 20010904//EN"
 "http://www.w3.org/TR/2001/REC-SVG-20010904/DTD/svg10.dtd">
<svg version="1.0" xmlns="http://www.w3.org/2000/svg"
 width="800.000000pt" height="800.000000pt" viewBox="0 0 800.000000 800.000000"
 preserveAspectRatio="xMidYMid meet">
<metadata>
Created by potrace 1.11, written by Peter Selinger 2001-2013
</metadata>
<g transform="translate(0.000000,800.000000) scale(0.100000,-0.100000)"
fill="#000000" stroke="none">
<path d="M810 7975 c-404 -87 -701 -385 -784 -787 -14 -70 -16 -378 -16 -3123
0 -2742 2 -3054 16 -3123 92 -449 443 -762 898 -802 151 -13 6001 -13 6152 0
455 40 806 353 898 802 14 69 16 381 16 3123 0 2745 -2 3053 -16 3123 -83 403
-383 703 -786 786 -70 14 -382 16 -3195 15 -2622 0 -3128 -3 -3183 -14z m5161
-712 c149 -69 228 -111 225 -119 -3 -7 -34 -53 -70 -103 l-66 -91 0 -195 0
-195 314 0 315 0 88 95 c48 52 91 95 95 95 8 0 388 -412 388 -420 0 -3 -26
-29 -59 -57 l-59 -52 -382 75 c-305 60 -385 72 -391 62 -6 -9 48 -68 182 -197
l190 -184 -59 -28 c-87 -42 -163 -128 -241 -274 -69 -127 -132 -229 -305 -494
-105 -160 -108 -165 -88 -180 10 -9 50 -41 88 -72 120 -98 427 -255 679 -346
61 -22 239 -78 397 -124 158 -46 282 -86 275 -90 -6 -4 -113 -44 -237 -89
-271 -99 -308 -117 -349 -169 l-32 -40 -77 29 c-348 130 -692 329 -952 550
-30 26 -61 50 -67 54 -8 4 -140 -69 -325 -180 -329 -197 -630 -362 -913 -500
-156 -77 -175 -84 -230 -84 l-60 1 130 67 c395 207 724 453 1072 804 l153 153
-116 410 c-64 226 -119 412 -121 415 -10 10 -69 -69 -118 -156 -50 -89 -113
-164 -139 -164 -8 0 -59 48 -115 107 l-100 108 152 77 c187 95 259 154 312
260 19 39 35 78 35 88 0 9 9 25 19 34 19 17 23 15 128 -69 59 -48 109 -91 111
-95 2 -5 -20 -46 -48 -92 l-52 -83 11 -70 c14 -83 56 -176 153 -340 40 -66 74
-122 76 -125 11 -15 139 185 207 325 74 152 119 273 208 557 l64 207 -66 8
c-124 15 -653 8 -816 -11 -332 -38 -642 -121 -926 -249 l-57 -26 -116 182
-116 182 53 7 c28 4 331 21 672 38 341 17 639 33 663 36 l42 5 0 277 0 277
-81 43 c-44 24 -79 48 -77 53 3 9 278 187 291 188 5 1 112 -47 238 -106z
m-3550 -21 c15 -6 34 -21 43 -34 29 -41 20 -85 -39 -188 -33 -57 -59 -117 -65
-149 -12 -64 -40 -339 -40 -394 l0 -40 143 6 c78 4 223 10 322 13 l180 7 130
114 c94 82 129 119 128 133 -3 19 -1 20 34 5 21 -9 60 -41 88 -73 27 -31 82
-92 121 -135 39 -43 81 -95 93 -117 l21 -39 -69 -48 -69 -48 -12 -64 c-7 -39
-10 -162 -9 -310 2 -315 -9 -365 -117 -517 -46 -65 -189 -204 -210 -204 -7 0
-26 12 -43 26 -42 35 -61 105 -61 225 l0 97 -28 5 c-104 21 -458 15 -579 -9
l-28 -6 -1 -546 c0 -481 -2 -555 -17 -611 -49 -183 -212 -370 -342 -393 -29
-5 -39 78 -19 152 11 38 18 134 24 315 5 143 14 346 19 450 6 105 10 292 11
418 l0 227 -27 -1 c-16 0 -174 -10 -353 -22 l-325 -22 -7 -94 c-15 -191 -70
-340 -161 -432 -59 -60 -86 -79 -129 -88 l-33 -8 -1 641 c0 353 -5 679 -10
726 l-9 84 -74 31 c-41 17 -77 37 -79 43 -2 7 65 46 157 91 l161 80 85 -40
c47 -22 130 -52 183 -66 87 -24 115 -27 272 -27 117 1 196 5 240 15 l65 15 3
320 2 321 -90 70 -90 71 132 46 c73 25 151 52 173 60 38 13 45 11 160 -29 66
-24 132 -48 146 -53z m3971 -3426 c82 -54 119 -92 137 -139 8 -20 4 -30 -19
-56 -16 -17 -34 -31 -40 -31 -25 0 -108 -93 -183 -205 -44 -66 -106 -156 -137
-200 -51 -71 -100 -154 -100 -170 0 -13 133 -3 215 16 64 15 130 22 226 24
165 2 196 14 292 112 l65 65 148 -167 c82 -91 150 -172 152 -179 1 -6 -15 -50
-37 -97 l-40 -85 -222 -33 c-121 -18 -222 -31 -223 -29 -2 2 14 66 36 142 21
77 35 142 32 145 -8 8 -245 3 -358 -9 -112 -11 -340 -48 -372 -60 -11 -5 -90
-92 -174 -194 -143 -172 -177 -205 -174 -163 1 9 56 112 122 229 212 378 341
658 402 874 l23 82 -42 62 c-23 35 -40 64 -39 65 9 9 205 63 215 60 6 -2 49
-28 95 -59z m-3563 -102 c74 -66 79 -82 46 -147 -14 -30 -31 -84 -36 -119 -7
-50 -27 -308 -25 -314 3 -6 290 36 299 44 7 4 47 37 89 71 74 60 79 63 100 49
41 -27 126 -118 138 -148 11 -27 9 -32 -25 -73 -45 -54 -32 -52 -377 -68 -142
-7 -258 -15 -258 -19 0 -4 8 -22 18 -41 12 -25 18 -63 20 -139 1 -58 5 -115 7
-127 l5 -23 278 -2 277 -3 27 -50 28 -50 0 50 c1 49 2 52 90 142 l89 93 116
-106 c63 -58 115 -107 115 -110 0 -3 -9 -22 -19 -43 -26 -51 -82 -98 -126
-107 -41 -7 -308 21 -415 44 -76 16 -188 18 -203 3 -5 -5 0 -26 11 -47 19 -37
21 -38 66 -35 83 5 155 -63 136 -128 -4 -14 -20 -49 -34 -77 -43 -82 -20 -124
69 -124 20 0 65 16 111 40 42 23 84 38 93 35 9 -3 53 -40 99 -83 l83 -77 -14
-40 -14 -40 -215 -3 -216 -2 -5 -438 c-3 -285 -9 -453 -16 -482 -30 -114 -117
-244 -219 -327 -50 -41 -56 -43 -116 -43 l-63 0 -6 55 c-10 95 -59 159 -195
255 -34 24 -62 48 -62 52 0 4 37 9 83 9 45 1 113 4 151 8 l70 6 33 56 33 57 4
333 c3 250 8 350 19 399 8 36 14 66 12 68 -2 3 -648 -34 -731 -41 l-42 -4 -41
86 c-23 47 -41 90 -41 94 0 4 178 7 395 7 l395 0 0 219 c0 121 -3 222 -7 224
-6 3 -587 -74 -729 -96 -30 -5 -34 -1 -92 83 -52 75 -59 89 -44 95 9 4 110 9
224 12 l206 6 11 76 c16 118 25 271 15 271 -5 -1 -59 -11 -121 -24 l-112 -23
-50 76 -51 76 163 5 162 5 3 229 c3 255 7 235 -73 324 -26 29 -46 54 -44 56 2
2 72 26 154 53 l150 51 49 -27 c27 -14 70 -45 95 -67z m3018 -72 c12 -19 25
-54 29 -79 6 -40 4 -48 -20 -71 -29 -29 -56 -31 -248 -21 -42 2 -80 0 -85 -5
-4 -4 27 -41 70 -81 l78 -73 -51 -44 -51 -45 12 -47 c8 -34 10 -120 7 -290 -7
-294 -9 -302 -126 -416 l-77 -75 120 -3 c143 -3 195 8 242 55 l34 34 32 -20
c75 -46 102 -97 82 -155 -8 -21 -18 -43 -23 -48 -7 -7 -51 -6 -131 2 -67 7
-124 11 -126 8 -3 -3 4 -31 17 -63 21 -55 21 -58 4 -89 -10 -18 -29 -45 -43
-60 l-25 -28 0 -371 c0 -425 -5 -485 -50 -570 -39 -73 -158 -203 -192 -209
-23 -5 -35 8 -112 120 -63 90 -83 126 -74 132 7 5 36 11 64 14 28 4 57 11 65
15 38 24 60 297 64 770 l2 353 -95 -7 c-286 -20 -576 -51 -912 -98 l-97 -14
-41 85 c-22 47 -39 86 -37 88 2 2 264 13 583 24 318 11 591 21 607 23 l27 2
-70 114 c-39 63 -69 115 -68 116 2 2 32 7 68 11 l65 9 8 60 c7 61 26 776 20
784 -2 3 -186 -14 -411 -37 -357 -36 -419 -45 -502 -71 -52 -16 -95 -29 -97
-28 -6 7 -73 160 -71 162 3 2 879 50 1139 62 l135 6 80 73 79 72 40 -21 c21
-12 49 -37 62 -55z m-3959 17 c20 -7 44 -29 67 -65 20 -30 40 -54 46 -54 5 0
9 -6 9 -14 0 -24 -42 -116 -54 -116 -6 0 -204 -23 -441 -50 -236 -26 -433 -45
-437 -42 -16 16 -78 135 -73 140 3 3 108 12 233 19 430 24 453 29 552 134 30
32 58 58 61 58 3 1 20 -4 37 -10z m3345 -377 c12 -11 17 -30 17 -68 0 -53 -1
-54 -41 -75 l-41 -21 6 -131 c4 -73 9 -151 13 -174 l5 -43 -197 -2 -198 -3
-21 -65 c-27 -84 -63 -144 -118 -198 l-45 -43 -26 27 c-25 25 -27 33 -27 113
0 47 7 194 15 326 8 132 15 248 15 257 0 9 -18 27 -40 39 -22 13 -40 26 -40
30 0 17 106 59 149 59 48 0 123 -37 140 -69 9 -16 22 -18 127 -16 l117 3 44
56 44 56 42 -21 c23 -12 50 -28 60 -37z m-3218 -201 c41 -67 75 -124 75 -126
0 -1 -37 -8 -82 -14 -52 -7 -209 -10 -418 -9 -344 3 -350 3 -640 -43 -36 -6
-107 -21 -158 -35 -52 -14 -95 -24 -96 -22 -1 2 -35 42 -74 89 -40 48 -72 89
-72 93 0 3 39 6 88 6 117 1 583 26 702 39 52 5 174 13 271 16 l177 7 68 69
c37 38 72 65 76 61 4 -4 42 -63 83 -131z m4344 -312 c45 -25 71 -65 71 -111 0
-63 -8 -75 -54 -82 -33 -5 -46 -13 -60 -37 -24 -40 -16 -45 28 -18 20 12 39
19 42 17 2 -3 9 -45 15 -93 11 -104 41 -244 70 -335 35 -108 154 -339 223
-432 161 -216 398 -415 673 -565 46 -25 82 -47 79 -50 -3 -3 -78 -9 -168 -14
-204 -11 -246 -20 -361 -74 l-92 -43 -116 122 c-314 329 -369 480 -369 1011 0
252 -7 325 -31 325 -13 0 -20 -13 -29 -57 -126 -631 -324 -1072 -594 -1326
-78 -74 -235 -202 -399 -325 -128 -97 -151 -110 -169 -101 -19 10 -19 11 -1
31 10 12 59 51 109 89 256 190 416 372 553 631 96 181 134 310 226 755 107
514 107 510 55 581 l-27 38 105 56 c104 56 105 56 145 42 21 -8 56 -23 76 -35z
m-4472 -111 c38 -40 53 -65 62 -102 7 -27 10 -50 7 -53 -2 -3 -125 -8 -273
-13 -292 -10 -385 -20 -504 -54 l-78 -23 -71 72 -72 72 63 6 c94 10 288 8 351
-3 50 -9 60 -8 91 10 26 15 58 22 124 26 138 7 143 9 191 64 24 27 46 50 50
50 4 0 31 -24 59 -52z m48 -340 l45 -22 0 -67 0 -68 -52 -6 c-29 -3 -222 -21
-428 -40 -206 -20 -376 -40 -378 -45 -2 -6 -8 -10 -14 -10 -15 0 -123 91 -123
104 0 12 36 16 480 41 l300 18 53 59 c30 32 58 58 63 58 4 0 29 -10 54 -22z
m3222 -235 l70 -78 -39 -60 -39 -60 6 -165 c3 -91 8 -175 11 -188 l5 -24 -98
6 c-71 4 -126 1 -197 -12 l-99 -17 -15 -70 c-16 -83 -51 -150 -111 -217 l-44
-49 -33 32 -34 33 0 376 0 377 -40 18 c-22 10 -40 21 -40 24 1 3 35 32 77 63
l75 58 42 -26 c79 -49 130 -68 197 -72 88 -5 144 18 189 82 18 25 36 46 40 46
4 0 39 -35 77 -77z m-3257 -238 l116 -116 -22 -140 c-13 -77 -28 -191 -34
-252 -15 -155 -32 -199 -105 -272 -33 -33 -72 -66 -87 -74 -25 -13 -31 -12
-68 14 l-40 28 0 88 c0 105 29 97 -230 69 -102 -11 -187 -20 -190 -20 -3 0 -4
-49 -2 -109 6 -156 -30 -261 -115 -344 l-29 -27 -37 31 -37 30 0 452 0 451
-62 63 c-34 34 -60 64 -57 66 2 2 45 18 94 35 50 17 98 34 107 37 12 5 24 -5
44 -37 15 -24 28 -44 29 -46 2 -2 11 1 22 7 10 5 102 14 205 19 220 12 249 21
323 108 26 29 50 54 53 54 4 0 59 -52 122 -115z m600 -78 c55 -32 221 -188
254 -238 16 -25 15 -29 -13 -102 -16 -42 -39 -89 -51 -104 -23 -30 -87 -73
-108 -73 -20 0 -113 73 -103 83 4 4 -6 76 -22 160 -29 143 -34 157 -84 241
-30 49 -52 95 -49 102 6 16 81 -13 176 -69z"/>
<path d="M2925 6339 c-33 -4 -159 -12 -280 -18 -121 -5 -239 -15 -262 -22
l-43 -11 0 -329 0 -329 338 2 337 3 3 358 c2 336 1 357 -15 356 -10 -1 -45 -5
-78 -10z"/>
<path d="M1979 6286 c-2 -2 -69 -9 -149 -16 -287 -22 -373 -31 -446 -47 l-74
-16 0 -299 0 -298 350 0 350 0 0 340 c0 277 -2 340 -13 340 -8 0 -16 -2 -18
-4z"/>
<path d="M4862 3143 c-111 -3 -123 -5 -118 -21 2 -9 12 -77 22 -150 l17 -134
96 7 c53 4 97 8 98 9 1 1 15 68 31 149 l29 147 -26 -2 c-14 -1 -81 -4 -149 -5z"/>
<path d="M4849 1948 c-65 -14 -72 -32 -77 -205 l-4 -143 84 0 84 0 12 83 c15
105 15 189 0 238 -12 43 -17 44 -99 27z"/>
<path d="M1460 1709 c-58 -5 -127 -15 -155 -22 l-50 -12 -3 -208 -2 -208 112
7 c62 4 142 9 178 13 l65 6 16 65 c9 36 22 121 28 190 6 69 14 137 17 153 6
27 5 27 -48 26 -29 -1 -100 -6 -158 -10z"/>
</g>
</svg>
